<svg xmlns="http://www.w3.org/2000/svg" viewBox="0 0 780 340" font-family="system-ui,sans-serif">
<rect width="780" height="340" fill="#fcfcfb"/>
<text x="56" y="20" fill="#0b0b0b" font-size="13" font-weight="600">Score vs the published Gumbel AlphaZero baselines, by total environment steps (search included)</text>
<line x1="56" y1="288.0" x2="660" y2="288.0" stroke="#e1e0d9"/>
<text x="48" y="291.0" fill="#898781" font-size="10.5" text-anchor="end">0</text>
<line x1="56" y1="231.6" x2="660" y2="231.6" stroke="#e1e0d9"/>
<text x="48" y="234.6" fill="#898781" font-size="10.5" text-anchor="end">0.2</text>
<line x1="56" y1="175.1" x2="660" y2="175.1" stroke="#e1e0d9"/>
<text x="48" y="178.1" fill="#898781" font-size="10.5" text-anchor="end">0.4</text>
<line x1="56" y1="146.9" x2="660" y2="146.9" stroke="#e1e0d9"/>
<text x="48" y="149.9" fill="#898781" font-size="10.5" text-anchor="end">0.5</text>
<line x1="56" y1="118.7" x2="660" y2="118.7" stroke="#e1e0d9"/>
<text x="48" y="121.7" fill="#898781" font-size="10.5" text-anchor="end">0.6</text>
<line x1="56" y1="62.2" x2="660" y2="62.2" stroke="#e1e0d9"/>
<text x="48" y="65.2" fill="#898781" font-size="10.5" text-anchor="end">0.8</text>
<line x1="56" y1="146.9" x2="660" y2="146.9" stroke="#898781" stroke-dasharray="4 4"/>
<text x="62" y="140.9" fill="#898781" font-size="10.5">0.50 = parity</text>
<line x1="478.3" y1="34" x2="478.3" y2="288" stroke="#898781" stroke-dasharray="4 4"/>
<text x="474.3" y="46" fill="#898781" font-size="10.5" text-anchor="end">their Othello/Hex cost (865M)</text>
<line x1="620.3" y1="34" x2="620.3" y2="288" stroke="#898781" stroke-dasharray="4 4"/>
<text x="616.3" y="60" fill="#898781" font-size="10.5" text-anchor="end">their Go cost (1.73B)</text>
<text x="91.8" y="306" fill="#898781" font-size="10.5" text-anchor="middle">131M</text>
<text x="233.7" y="306" fill="#898781" font-size="10.5" text-anchor="middle">262M</text>
<text x="375.7" y="306" fill="#898781" font-size="10.5" text-anchor="middle">524M</text>
<text x="478.3" y="306" fill="#898781" font-size="10.5" text-anchor="middle">865M</text>
<text x="517.8" y="306" fill="#898781" font-size="10.5" text-anchor="middle">1.05B</text>
<text x="620.3" y="306" fill="#898781" font-size="10.5" text-anchor="middle">1.73B</text>
<text x="390" y="324" fill="#898781" font-size="10.5" text-anchor="middle">total env steps executed during training (log) — ours = frames (no search); theirs = frames × 33 (32 sims + move)</text>
<polyline fill="none" stroke="#2a78d6" stroke-width="2" points="91.9,192.9 233.9,169.5 316.9,123.5 375.8,115.0 421.5,93.5 458.8,92.7 490.4,114.2 517.8,93.0"/>
<circle cx="517.8" cy="93.0" r="3.5" fill="#2a78d6"/>
<polyline fill="none" stroke="#eb6834" stroke-width="2" points="91.9,159.0 233.9,93.0 316.9,72.9 375.8,64.2 421.5,63.1 458.8,56.6 490.4,59.1 517.8,56.0"/>
<circle cx="517.8" cy="56.0" r="3.5" fill="#eb6834"/>
<polyline fill="none" stroke="#1baf7a" stroke-width="2" points="91.9,195.4 233.9,128.3 316.9,101.2 375.8,73.5 421.5,67.6 458.8,63.1 490.4,59.1 517.8,64.8"/>
<circle cx="517.8" cy="64.8" r="3.5" fill="#1baf7a"/>
<text x="525.8" y="50.0" fill="#eb6834" font-size="11.5" font-weight="600">Hex 0.835*</text>
<text x="525.8" y="76.8" fill="#1baf7a" font-size="11.5" font-weight="600">Go 9×9 0.817*</text>
<text x="525.8" y="101.0" fill="#2a78d6" font-size="11.5" font-weight="600">Othello 0.671*</text>
<text x="56" y="303" fill="#898781" font-size="10">* final checkpoints verified over 10,240 games (5 seeds); curve points are 512-game checkpoint evals</text>
</svg>